<?xml version="1.0" encoding="UTF-8"?>
<svg xmlns="http://www.w3.org/2000/svg" version="1.1" viewBox="0 0 303 86.5">
  <defs>
    <style>
      .cls-1 {
        fill: #5985b9;
      }
    </style>
  </defs>
  <!-- Generator: Adobe Illustrator 28.7.2, SVG Export Plug-In . SVG Version: 1.2.0 Build 154)  -->
  <g>
    <g id="_圖層_1" data-name="圖層_1">
      <g>
        <rect class="cls-1" x="59.4" y="51.9" width="17.5" height="31.9" transform="translate(-28 68.1) rotate(-45)"/>
        <path class="cls-1" d="M5.3,24.4l5.7,5.7c6.7,6.7,17.7,6.6,24.4-.1L5.4,0c-6.7,6.7-6.8,17.7-.1,24.4Z"/>
        <path class="cls-1" d="M17.8,50.5C8.1,50.5.3,58.3.3,68s7.8,17.4,17.4,17.4,17.4-7.8,17.4-17.4-7.8-17.4-17.4-17.4ZM17.8,73.8c-3.2,0-5.8-2.6-5.8-5.8s2.6-5.8,5.8-5.8,5.8,2.6,5.8,5.8-2.6,5.8-5.8,5.8Z"/>
        <circle class="cls-1" cx="68.2" cy="17.6" r="17.5"/>
        <path class="cls-1" d="M119.5,21.7c1.9,0,3.5-.7,4.8-2.1l-1.3-2c-1.2.8-2.3,1.2-3.2,1.2-1.4,0-2.4-.5-3.3-1.6-.8-1-1.1-2.2-1.1-3.6s.3-2.9,1-3.8c.7-1.1,1.8-1.7,3.2-1.7s2.1.4,3.3,1.3l1.3-2.1c-1.6-1.3-3.2-2-4.8-2-2.3,0-4,.8-5.3,2.3-1.3,1.5-1.9,3.5-1.9,6s.5,3.6,1.4,5c1.3,2,3.3,3,6,3Z"/>
        <path class="cls-1" d="M132.5,21.7c1.4,0,2.6-.5,3.7-1.4,1.3-1.1,1.9-2.6,1.9-4.5s-.4-2.9-1.3-4c-1-1.3-2.5-2-4.3-2s-2.9.5-4,1.5c-1.1,1.1-1.7,2.6-1.7,4.4s.5,3,1.5,4.1c1.1,1.2,2.5,1.8,4.1,1.8ZM132.5,12c1.6,0,2.4,1.2,2.4,3.7s-.8,3.6-2.4,3.6-2.4-1.2-2.4-3.6.8-3.7,2.4-3.7Z"/>
        <path class="cls-1" d="M146.9,21.7c1.4,0,2.6-.5,3.7-1.4,1.3-1.1,1.9-2.6,1.9-4.5s-.4-2.9-1.3-4c-1-1.3-2.5-2-4.3-2s-2.9.5-4,1.5c-1.1,1.1-1.7,2.6-1.7,4.4s.5,3,1.5,4.1c1.1,1.2,2.5,1.8,4.1,1.8ZM146.9,12c1.6,0,2.4,1.2,2.4,3.7s-.8,3.6-2.4,3.6-2.4-1.2-2.4-3.6.8-3.7,2.4-3.7Z"/>
        <polygon class="cls-1" points="156.4 21.4 159.5 21.4 159.5 5.4 156.4 7 156.4 21.4"/>
        <path class="cls-1" d="M177.4,21.3c1.9,0,3.5-.7,4.8-2.1l-1.3-2c-1.2.8-2.3,1.2-3.2,1.2-1.4,0-2.4-.5-3.3-1.6-.8-1-1.1-2.2-1.1-3.6s.3-2.9,1-3.8c.7-1.1,1.8-1.7,3.2-1.7s2.1.4,3.3,1.3l1.3-2.1c-1.6-1.3-3.2-2-4.8-2-2.3,0-4,.8-5.3,2.3-1.3,1.5-1.9,3.5-1.9,6s.5,3.6,1.4,5c1.3,2,3.3,3,6,3Z"/>
        <path class="cls-1" d="M189.3,12.9c.3-.6.7-.9,1.2-.9s1.2.3,1.7.9l2.6-1.4c-.7-1.4-1.8-2.1-3.3-2.1s-1,.1-1.5.4c-.5.3-.8.6-1,.9l-.3-1h-2.7v11.3h3.1v-8.1Z"/>
        <path class="cls-1" d="M202.1,9.4c-1.6,0-2.9.5-4,1.6-1.2,1.2-1.7,2.6-1.7,4.4s.5,3.2,1.5,4.3c1.1,1.1,2.6,1.6,4.5,1.6s3.3-.5,4.5-1.6l-.8-1.7c-1.2.7-2.3,1-3.4,1s-1.4-.3-2-.8c-.6-.5-.9-1.1-.9-1.9h7.8v-1.1c0-1.6-.4-3-1.3-4-1-1.2-2.4-1.8-4.2-1.8ZM199.7,14.1c.2-1.6,1-2.4,2.4-2.4s2.3.8,2.4,2.4h-4.8Z"/>
        <path class="cls-1" d="M217,13.8c-2.1,0-3.6.3-4.7,1-1,.7-1.6,1.6-1.6,2.8,0,2.4,1.3,3.7,3.8,3.7s2.2-.5,3.3-1.4l.2,1.1h2.5v-6.6c0-3.3-1.3-5-4-5s-1.8.1-2.5.4c-.7.3-1.5.8-2.5,1.5.3.5.5,1.1.8,1.6.9-.7,1.9-1,3-1s1.3.1,1.6.4c.3.3.4.8.4,1.5h0s-.5,0-.5,0ZM217.4,17.4c0,.5-.3.9-.7,1.2-.4.3-.9.5-1.4.5-.9,0-1.3-.5-1.3-1.5s.3-1,.9-1.3c.6-.3,1.3-.5,2.3-.5h.4v1.7Z"/>
        <path class="cls-1" d="M225.9,18.1c0,2.2,1,3.3,3,3.3s2.7-.5,3.9-1.4l-1-1.6c-.7.4-1.4.6-1.9.6s-.8-.4-.8-1.2v-5.6h3.2v-2.5h-3.2v-3.7c-1.3.7-2.3,1.2-3.2,1.7v2h-1.6v2.5h1.6v5.9Z"/>
        <rect class="cls-1" x="236.2" y="9.7" width="3.2" height="11.3"/>
        <path class="cls-1" d="M237.7,4.9c-.5,0-1,.2-1.3.6-.4.4-.6.8-.6,1.4s.2,1,.5,1.4c.4.4.8.6,1.4.6s1.1-.2,1.4-.5c.4-.4.6-.8.6-1.4s-.2-1-.6-1.4c-.4-.4-.9-.6-1.4-.6Z"/>
        <path class="cls-1" d="M248.1,17.2l-2.4-7.5h-3.2l4.4,11.3h2.4c.8-2,2-5,3.6-8.8l.5-1.3.5-1.2h-3.3l-2.6,7.5Z"/>
        <path class="cls-1" d="M266.8,19.7l-.8-1.7c-1.2.7-2.3,1-3.4,1s-1.4-.3-2-.8c-.6-.5-.9-1.1-.9-1.9h7.8v-1.1c0-1.6-.4-3-1.3-4-1-1.2-2.4-1.8-4.2-1.8s-2.9.5-4,1.6c-1.2,1.2-1.7,2.6-1.7,4.4s.5,3.2,1.5,4.3c1.1,1.1,2.6,1.6,4.5,1.6s3.3-.5,4.5-1.6ZM261.9,11.6c1.5,0,2.3.8,2.4,2.4h-4.8c.2-1.6,1-2.4,2.4-2.4Z"/>
        <rect class="cls-1" x="112.2" y="51" width="19.7" height="3.3"/>
        <path class="cls-1" d="M150.1,70.4h-14.8v14.4h18.7v-14.4h-3.9ZM139,81.4v-7.6h11.1v7.6h-11.1Z"/>
        <rect class="cls-1" x="117.5" y="74.2" width="9.6" height="3.4"/>
        <path class="cls-1" d="M128.5,67.5h-1c-.3,0-.5-.3-.5-.6v-12.6h-3.8v14.1c0,1.7,1.2,2.3,2.8,2.3h2.6v10.6h-12.5v-10.6h2.5c1.6,0,2.8-.6,2.8-2.3v-14.1h-3.8v12.6c0,.3-.2.6-.5.6h-.9v-6.7h-3.8v24.4h0s16.4,0,16.4,0h0s3.8,0,3.8,0v-24.5h-3.8v6.7Z"/>
        <path class="cls-1" d="M146.7,58h7.2v-3.4h-7.2v-7.2h-3.8v7.2h-4.1c1.3-2.9,2.3-5.3,2.3-5.3l-3.8-1.4s-2.8,6.3-5.3,11l3.8,1.9c.5-.9.9-1.8,1.4-2.8h5.7v6.2h-9.1v3.5h21.5v-3.5h-8.6v-6.2Z"/>
        <rect class="cls-1" x="239.8" y="54.1" width="3.8" height="20.1"/>
        <path class="cls-1" d="M248,66.3v13.5c0,.3-.2.6-.5.6h-7.6v4h9c1.6,0,2.9-1.4,2.9-3.1v-31.2h-3.8v16.2Z"/>
        <path class="cls-1" d="M222.3,48.1l-10.6,10.1,2.5,3,.2-.2h16.1v2.3h-16.3v2.8h0s0,.9,0,2.3h0c-.2,2.9-1.1,7.9-5,11.9l2.9,3.4s2.7-2.6,4.5-7.3v8.8h17.3v-11.3h-16.5c.2-.9.4-1.8.5-2.8h15.4s.6,0,.6,0v-10h0s2.8-3,2.8-3l-10.1-10.1h-4.3ZM223.9,51.8c.2-.2.5-.2.7,0l5.9,6.1h-12.9l6.3-6.1ZM218,66.2h12.4v2.3h-12.4c0-.3,0-2,0-2.3ZM230,77.4v4.5h-9.7v-4.5h9.7Z"/>
        <polygon class="cls-1" points="265.6 70.9 265.6 73.7 279.5 73.7 279.5 70.9 274.4 70.9 274.4 69 279.3 69 279.3 66.2 274.4 66.2 274.4 63.4 271 63.4 271 66.2 266.3 66.2 266.3 69 271 69 271 70.9 265.6 70.9"/>
        <rect class="cls-1" x="266.3" y="82" width="30.7" height="3.4"/>
        <polygon class="cls-1" points="290.7 75.2 272.5 75.2 269.2 75.2 260.3 75.2 260.3 78.6 267.7 78.6 266.3 82 270.1 82 271.3 78.6 291.9 78.6 293.1 82 297 82 295.5 78.6 303 78.6 303 75.2 294.1 75.2 290.7 75.2"/>
        <path class="cls-1" d="M299.4,69.6c-.3,0-.5-.3-.5-.6v-11.8h-6.3v-3.4h8.7v-3.4h-8.7v-2.8h-3.8v2.8h-14.2v-2.9h-3.8v2.9h-8.3v3.4h8.3v3.4h-9v3.4h4.4c-2.1,3.1-4.8,3.8-4.8,3.8l1.4,3.4c5.6-3.1,7-6.7,7.2-7.2h6.1v1.4c0,2.1,1.5,3,2.8,3h4.7v-2.8h-3.6c-.5,0-.9-.5-.9-1v-.6h10.2c0,1.6-.4,2.9-1,4l-1-1-2.3,2.4,1.4,1.4c-1.7,1.8-3.4,2.6-3.4,2.6l1.5,3.4c1.9-.9,3.4-2.1,4.6-3.4l2.7,2.7,2.4-2.4-3.2-3.1c1.3-2.6,1.6-5.1,1.7-6.6h3v9.9c0,1.7,1.2,3.1,2.6,3.1h4.9v-4h-3.6ZM274.5,53.9h14.2v3.4h-14.2v-3.4Z"/>
        <path class="cls-1" d="M184.9,47.7h-3.8v2.6h-18.9v.7h0v6.9h3.8v-4.2h7.7c-3.7,6.4-10.1,10.2-10.1,10.2l1.9,3.8s3.1-1.8,6.4-4.8c2.4,2,4.8,3.7,7.2,5.2-9.1,4.3-16.7,4.7-16.7,4.7v4.3s3-.2,7.7-1.5v9.7h25.9v-9.7c4.7,1.3,7.7,1.6,7.7,1.6v-4.3s-7.2-.6-16.1-4.8c3-1.8,6-4,8.9-6.7h0s0,0,0,0h0v-3.4h-20.2c.9-1.3,1.6-2.7,2.2-4.2h21.7v4.2h3.9v-7.7h-18.9v-2.6ZM173.9,81.8v-4.3h18.2v4.3h-18.2ZM191.8,74.2h-17.4c2.7-.9,5.6-2.2,8.8-3.8,3.1,1.6,6,2.9,8.6,3.8ZM183.4,65.8c-2.2-1.3-4.4-2.8-6.6-4.5h13.2c-2.2,1.8-4.4,3.3-6.6,4.5Z"/>
      </g>
    </g>
  </g>
</svg>