<?xml version="1.0" encoding="UTF-8"?>
<svg xmlns="http://www.w3.org/2000/svg" xmlns:xlink="http://www.w3.org/1999/xlink" version="1.1" viewBox="0 0 930.1 75">
  <defs>
    <style>
      .cls-1, .cls-2 {
        fill: none;
      }

      .cls-3 {
        fill: #fd875b;
      }

      .cls-2 {
        stroke: #fd875b;
        stroke-miterlimit: 10;
      }

      .cls-4 {
        clip-path: url(#clippath);
      }
    </style>
    <clipPath id="clippath">
      <rect class="cls-1" width="1239.1" height="75"/>
    </clipPath>
  </defs>
  <!-- Generator: Adobe Illustrator 28.7.2, SVG Export Plug-In . SVG Version: 1.2.0 Build 154)  -->
  <g>
    <g id="_圖層_1" data-name="圖層_1">
      <g class="cls-4">
        <g>
          <path class="cls-3" d="M34.7,51.1h-3.5l-13.9-21.1v21.1h-3.5v-26.5h3.5l13.9,21.1v-21.1h3.5v26.5ZM44.3,26.8c-.7,0-1.2-.2-1.7-.7-.5-.5-.7-1-.7-1.7s.2-1.2.7-1.7c.5-.5,1-.7,1.7-.7s1.2.2,1.6.7c.5.5.7,1,.7,1.7s-.2,1.2-.7,1.7c-.4.5-1,.7-1.6.7ZM46,30.2v20.8h-3.5v-20.8h3.5ZM52.5,40.6c0-2.2.4-4,1.3-5.6.9-1.6,2.1-2.9,3.6-3.8,1.5-.9,3.3-1.3,5.3-1.3s4.7.6,6.3,1.9c1.7,1.2,2.8,3,3.3,5.2h-3.7c-.4-1.3-1.1-2.3-2.1-3-1-.7-2.3-1.1-3.8-1.1s-3.6.7-4.8,2.1c-1.2,1.3-1.8,3.3-1.8,5.7s.6,4.4,1.8,5.8c1.2,1.4,2.8,2.1,4.8,2.1s2.8-.4,3.8-1.1c1-.7,1.7-1.7,2.1-3h3.7c-.6,2.1-1.7,3.8-3.3,5.1-1.7,1.3-3.8,1.9-6.3,1.9s-3.7-.4-5.3-1.3c-1.5-.9-2.7-2.1-3.6-3.8-.9-1.6-1.3-3.5-1.3-5.7ZM97.8,39.8c0,.7,0,1.4-.1,2.1h-16.7c.1,2.1.8,3.7,2.1,4.8,1.3,1.1,2.9,1.7,4.7,1.7s2.7-.3,3.7-1c1-.7,1.7-1.6,2.1-2.8h3.7c-.6,2-1.7,3.6-3.3,4.9-1.7,1.2-3.8,1.9-6.2,1.9s-3.8-.4-5.3-1.3c-1.5-.9-2.8-2.1-3.7-3.8-.9-1.6-1.3-3.5-1.3-5.7s.4-4,1.3-5.7c.9-1.6,2.1-2.9,3.6-3.7,1.6-.9,3.4-1.3,5.4-1.3s3.7.4,5.2,1.3c1.5.9,2.7,2.1,3.5,3.6.8,1.5,1.3,3.2,1.3,5.1ZM94.2,39.1c0-1.3-.3-2.4-.9-3.4-.6-1-1.4-1.7-2.4-2.2-1-.5-2.1-.8-3.3-.8-1.7,0-3.2.6-4.5,1.7-1.2,1.1-1.9,2.7-2.1,4.6h13.2ZM107.8,46.3l-4.3,10.2h-2.3l2.8-10.2h3.8ZM140.7,24.6v2.8h-11.5v8.9h9.4v2.8h-9.4v11.9h-3.5v-26.5h15ZM148.6,26.8c-.7,0-1.2-.2-1.7-.7-.5-.5-.7-1-.7-1.7s.2-1.2.7-1.7c.5-.5,1-.7,1.7-.7s1.2.2,1.6.7c.5.5.7,1,.7,1.7s-.2,1.2-.7,1.7c-.4.5-1,.7-1.6.7ZM150.3,30.2v20.8h-3.5v-20.8h3.5ZM168.2,29.8c2.5,0,4.6.8,6.2,2.3,1.6,1.5,2.4,3.7,2.4,6.6v12.3h-3.4v-11.8c0-2.1-.5-3.7-1.6-4.8-1-1.1-2.5-1.7-4.3-1.7s-3.3.6-4.4,1.7c-1.1,1.1-1.6,2.8-1.6,5v11.5h-3.5v-20.8h3.5v3c.7-1.1,1.6-1.9,2.8-2.5,1.2-.6,2.5-.9,3.9-.9ZM203.3,39.8c0,.7,0,1.4-.1,2.1h-16.7c.1,2.1.8,3.7,2.1,4.8,1.3,1.1,2.9,1.7,4.7,1.7s2.7-.3,3.7-1c1-.7,1.7-1.6,2.1-2.8h3.7c-.6,2-1.7,3.6-3.3,4.9-1.7,1.2-3.8,1.9-6.2,1.9s-3.8-.4-5.3-1.3c-1.5-.9-2.8-2.1-3.7-3.8-.9-1.6-1.3-3.5-1.3-5.7s.4-4,1.3-5.7c.9-1.6,2.1-2.9,3.6-3.7,1.6-.9,3.4-1.3,5.4-1.3s3.7.4,5.2,1.3c1.5.9,2.7,2.1,3.5,3.6.8,1.5,1.3,3.2,1.3,5.1ZM199.7,39.1c0-1.3-.3-2.4-.9-3.4-.6-1-1.4-1.7-2.4-2.2-1-.5-2.1-.8-3.3-.8-1.7,0-3.2.6-4.5,1.7-1.2,1.1-1.9,2.7-2.1,4.6h13.2ZM220.5,40.6c0-2.1.4-4,1.3-5.6.9-1.6,2-2.9,3.5-3.8,1.5-.9,3.2-1.3,5.1-1.3s3.4.4,4.8,1.2c1.3.8,2.3,1.8,3,3v-3.8h3.5v20.8h-3.5v-3.9c-.7,1.2-1.7,2.2-3.1,3-1.3.8-2.9,1.2-4.7,1.2s-3.5-.5-5-1.4c-1.5-.9-2.7-2.2-3.5-3.8-.9-1.6-1.3-3.5-1.3-5.6ZM238.2,40.6c0-1.6-.3-2.9-1-4.1-.6-1.2-1.5-2.1-2.6-2.7-1.1-.6-2.2-1-3.5-1s-2.5.3-3.5.9-1.9,1.5-2.5,2.7c-.6,1.2-1,2.5-1,4.1s.3,3,1,4.2c.6,1.2,1.5,2.1,2.5,2.7,1.1.6,2.2.9,3.5.9s2.5-.3,3.5-.9c1.1-.6,2-1.5,2.6-2.7.6-1.2,1-2.6,1-4.1ZM259.6,29.8c2.5,0,4.6.8,6.2,2.3,1.6,1.5,2.4,3.7,2.4,6.6v12.3h-3.4v-11.8c0-2.1-.5-3.7-1.6-4.8-1-1.1-2.5-1.7-4.3-1.7s-3.3.6-4.4,1.7c-1.1,1.1-1.6,2.8-1.6,5v11.5h-3.5v-20.8h3.5v3c.7-1.1,1.6-1.9,2.8-2.5,1.2-.6,2.5-.9,3.9-.9ZM274.4,40.6c0-2.1.4-4,1.3-5.6.9-1.6,2-2.9,3.5-3.8,1.5-.9,3.2-1.3,5.1-1.3s3.1.4,4.5,1.1c1.4.7,2.5,1.7,3.2,2.9v-11h3.5v28.1h-3.5v-3.9c-.7,1.2-1.7,2.3-3,3.1-1.3.8-2.9,1.2-4.7,1.2s-3.5-.5-5.1-1.4c-1.5-.9-2.7-2.2-3.5-3.8-.9-1.6-1.3-3.5-1.3-5.6ZM292,40.6c0-1.6-.3-2.9-1-4.1-.6-1.2-1.5-2.1-2.6-2.7-1.1-.6-2.2-1-3.5-1s-2.5.3-3.5.9-1.9,1.5-2.5,2.7c-.6,1.2-1,2.5-1,4.1s.3,3,1,4.2c.6,1.2,1.5,2.1,2.5,2.7,1.1.6,2.2.9,3.5.9s2.5-.3,3.5-.9c1.1-.6,2-1.5,2.6-2.7.6-1.2,1-2.6,1-4.1Z"/>
          <path class="cls-3" d="M429.5,20.6l-10.8,12.1,19.8,22,10.8-12.1-19.8-22Z"/>
          <path class="cls-3" d="M331.8,20.7c-5.9,6.6-5.9,17.3,0,23.8l5,5.5c5.8,6.5,15.4,6.5,21.3-.1l-26.2-29.2Z"/>
          <path class="cls-3" d="M403.5,22.3c-8.5,0-15.3,6.9-15.3,15.3s6.9,15.3,15.3,15.3,15.3-6.9,15.3-15.3-6.9-15.3-15.3-15.3ZM403.5,42.7c-2.8,0-5.1-2.3-5.1-5.1s2.3-5.1,5.1-5.1,5.1,2.3,5.1,5.1-2.3,5.1-5.1,5.1Z"/>
          <path class="cls-3" d="M373.1,52.9c8.5,0,15.3-6.9,15.3-15.3s-6.9-15.3-15.3-15.3-15.3,6.9-15.3,15.3,6.9,15.3,15.3,15.3Z"/>
          <path class="cls-3" d="M501.9,51.1h-3.5l-13.9-21.1v21.1h-3.5v-26.5h3.5l13.9,21.1v-21.1h3.5v26.5ZM511.5,26.8c-.7,0-1.2-.2-1.7-.7-.5-.5-.7-1-.7-1.7s.2-1.2.7-1.7c.5-.5,1-.7,1.7-.7s1.2.2,1.6.7c.5.5.7,1,.7,1.7s-.2,1.2-.7,1.7c-.4.5-1,.7-1.6.7ZM513.2,30.2v20.8h-3.5v-20.8h3.5ZM519.7,40.6c0-2.2.4-4,1.3-5.6.9-1.6,2.1-2.9,3.6-3.8,1.5-.9,3.3-1.3,5.3-1.3s4.7.6,6.3,1.9c1.7,1.2,2.8,3,3.3,5.2h-3.7c-.4-1.3-1.1-2.3-2.1-3-1-.7-2.3-1.1-3.8-1.1s-3.6.7-4.8,2.1c-1.2,1.3-1.8,3.3-1.8,5.7s.6,4.4,1.8,5.8c1.2,1.4,2.8,2.1,4.8,2.1s2.8-.4,3.8-1.1,1.7-1.7,2.1-3h3.7c-.6,2.1-1.7,3.8-3.3,5.1-1.7,1.3-3.8,1.9-6.3,1.9s-3.7-.4-5.3-1.3c-1.5-.9-2.7-2.1-3.6-3.8s-1.3-3.5-1.3-5.7ZM565,39.8c0,.7,0,1.4-.1,2.1h-16.7c.1,2.1.8,3.7,2.1,4.8,1.3,1.1,2.9,1.7,4.7,1.7s2.7-.3,3.7-1c1-.7,1.7-1.6,2.1-2.8h3.7c-.6,2-1.7,3.6-3.3,4.9-1.7,1.2-3.8,1.9-6.2,1.9s-3.8-.4-5.3-1.3c-1.5-.9-2.8-2.1-3.7-3.8-.9-1.6-1.3-3.5-1.3-5.7s.4-4,1.3-5.7c.9-1.6,2.1-2.9,3.6-3.7,1.6-.9,3.4-1.3,5.4-1.3s3.7.4,5.2,1.3c1.5.9,2.7,2.1,3.5,3.6.8,1.5,1.3,3.2,1.3,5.1ZM561.4,39.1c0-1.3-.3-2.4-.9-3.4-.6-1-1.4-1.7-2.4-2.2-1-.5-2.1-.8-3.3-.8-1.7,0-3.2.6-4.5,1.7-1.2,1.1-1.9,2.7-2.1,4.6h13.2ZM575,46.3l-4.3,10.2h-2.3l2.8-10.2h3.8ZM607.9,24.6v2.8h-11.5v8.9h9.4v2.8h-9.4v11.9h-3.5v-26.5h15ZM615.8,26.8c-.7,0-1.2-.2-1.7-.7s-.7-1-.7-1.7.2-1.2.7-1.7,1-.7,1.7-.7,1.2.2,1.6.7c.5.5.7,1,.7,1.7s-.2,1.2-.7,1.7c-.4.5-1,.7-1.6.7ZM617.5,30.2v20.8h-3.5v-20.8h3.5ZM635.4,29.8c2.5,0,4.6.8,6.2,2.3,1.6,1.5,2.4,3.7,2.4,6.6v12.3h-3.4v-11.8c0-2.1-.5-3.7-1.6-4.8-1-1.1-2.5-1.7-4.3-1.7s-3.3.6-4.4,1.7c-1.1,1.1-1.6,2.8-1.6,5v11.5h-3.5v-20.8h3.5v3c.7-1.1,1.6-1.9,2.8-2.5,1.2-.6,2.5-.9,3.9-.9ZM670.5,39.8c0,.7,0,1.4-.1,2.1h-16.7c.1,2.1.8,3.7,2.1,4.8,1.3,1.1,2.9,1.7,4.7,1.7s2.7-.3,3.7-1c1-.7,1.7-1.6,2.1-2.8h3.7c-.6,2-1.7,3.6-3.3,4.9-1.7,1.2-3.8,1.9-6.2,1.9s-3.8-.4-5.3-1.3c-1.5-.9-2.8-2.1-3.7-3.8-.9-1.6-1.3-3.5-1.3-5.7s.4-4,1.3-5.7c.9-1.6,2.1-2.9,3.6-3.7,1.6-.9,3.4-1.3,5.4-1.3s3.7.4,5.2,1.3c1.5.9,2.7,2.1,3.5,3.6.8,1.5,1.3,3.2,1.3,5.1ZM666.9,39.1c0-1.3-.3-2.4-.9-3.4-.6-1-1.4-1.7-2.4-2.2-1-.5-2.1-.8-3.3-.8-1.7,0-3.2.6-4.5,1.7-1.2,1.1-1.9,2.7-2.1,4.6h13.2ZM687.7,40.6c0-2.1.4-4,1.3-5.6.9-1.6,2-2.9,3.5-3.8,1.5-.9,3.2-1.3,5.1-1.3s3.4.4,4.8,1.2c1.3.8,2.3,1.8,3,3v-3.8h3.5v20.8h-3.5v-3.9c-.7,1.2-1.7,2.2-3.1,3-1.3.8-2.9,1.2-4.7,1.2s-3.5-.5-5-1.4c-1.5-.9-2.7-2.2-3.5-3.8-.9-1.6-1.3-3.5-1.3-5.6ZM705.4,40.6c0-1.6-.3-2.9-1-4.1-.6-1.2-1.5-2.1-2.6-2.7-1.1-.6-2.2-1-3.5-1s-2.5.3-3.5.9c-1.1.6-1.9,1.5-2.5,2.7-.6,1.2-1,2.5-1,4.1s.3,3,1,4.2c.6,1.2,1.5,2.1,2.5,2.7,1.1.6,2.2.9,3.5.9s2.5-.3,3.5-.9c1.1-.6,2-1.5,2.6-2.7.6-1.2,1-2.6,1-4.1ZM726.8,29.8c2.5,0,4.6.8,6.2,2.3,1.6,1.5,2.4,3.7,2.4,6.6v12.3h-3.4v-11.8c0-2.1-.5-3.7-1.6-4.8-1-1.1-2.5-1.7-4.3-1.7s-3.3.6-4.4,1.7c-1.1,1.1-1.6,2.8-1.6,5v11.5h-3.5v-20.8h3.5v3c.7-1.1,1.6-1.9,2.8-2.5,1.2-.6,2.5-.9,3.9-.9ZM741.5,40.6c0-2.1.4-4,1.3-5.6.9-1.6,2-2.9,3.5-3.8,1.5-.9,3.2-1.3,5.1-1.3s3.1.4,4.5,1.1c1.4.7,2.5,1.7,3.2,2.9v-11h3.5v28.1h-3.5v-3.9c-.7,1.2-1.7,2.3-3,3.1-1.3.8-2.9,1.2-4.7,1.2s-3.5-.5-5.1-1.4c-1.5-.9-2.7-2.2-3.5-3.8-.9-1.6-1.3-3.5-1.3-5.6ZM759.2,40.6c0-1.6-.3-2.9-1-4.1-.6-1.2-1.5-2.1-2.6-2.7-1.1-.6-2.2-1-3.5-1s-2.5.3-3.5.9c-1.1.6-1.9,1.5-2.5,2.7-.6,1.2-1,2.5-1,4.1s.3,3,1,4.2c.6,1.2,1.5,2.1,2.5,2.7,1.1.6,2.2.9,3.5.9s2.5-.3,3.5-.9c1.1-.6,2-1.5,2.6-2.7.6-1.2,1-2.6,1-4.1Z"/>
          <path class="cls-3" d="M896.7,20.6l-10.8,12.1,19.8,22,10.8-12.1-19.8-22Z"/>
          <path class="cls-3" d="M799,20.7c-5.9,6.6-5.9,17.3,0,23.8l5,5.5c5.8,6.5,15.4,6.5,21.3-.1l-26.2-29.2Z"/>
          <path class="cls-3" d="M870.7,22.3c-8.5,0-15.3,6.9-15.3,15.3s6.9,15.3,15.3,15.3,15.3-6.9,15.3-15.3-6.9-15.3-15.3-15.3ZM870.7,42.7c-2.8,0-5.1-2.3-5.1-5.1s2.3-5.1,5.1-5.1,5.1,2.3,5.1,5.1-2.3,5.1-5.1,5.1Z"/>
          <path class="cls-3" d="M840.3,52.9c8.5,0,15.3-6.9,15.3-15.3s-6.9-15.3-15.3-15.3-15.3,6.9-15.3,15.3,6.9,15.3,15.3,15.3Z"/>
        </g>
      </g>
      <rect class="cls-2" x="-20.4" width="1296.8" height="75"/>
    </g>
  </g>
</svg>