<?xml version="1.0" encoding="UTF-8"?>
<svg xmlns="http://www.w3.org/2000/svg" version="1.1" viewBox="0 0 769.6 86.6">
  <defs>
    <style>
      .cls-1 {
        fill: none;
      }

      .cls-2 {
        fill: #00001e;
      }
    </style>
  </defs>
  <!-- Generator: Adobe Illustrator 28.7.2, SVG Export Plug-In . SVG Version: 1.2.0 Build 154)  -->
  <g>
    <g id="_圖層_1" data-name="圖層_1">
      <rect class="cls-1" x="-130.7" y="-280.6" width="1307.5" height="777.3"/>
      <path class="cls-2" d="M48.8,0h13.5l18.1,66.2L97.9,0h13.2l-24.9,85.3h-10.9c-6.4-19.4-12.9-41.8-19.7-67.3-6.7,25.4-13.3,47.9-19.7,67.3h-10.9L0,0h13.2l17.5,66.2L48.8,0ZM134.9,85.3h-12.4V0h12.4v35.9h41.1V0h12.5v85.3h-12.5v-39.1h-41.1v39.1ZM198.6,50.7c0-14,2.6-24.8,7.8-32.5,5.2-7.7,11.3-12.9,18.4-15.5,7-2.7,13.9-4,20.6-4s16.8,2.5,23.9,7.5c7.2,5,10.8,14.4,10.8,28.2s-2.7,24.8-8,32.5c-5.2,7.7-11.3,12.9-18.4,15.7-7,2.7-13.9,4-20.6,4s-16.8-2.6-23.9-7.7c-7.1-5.1-10.7-14.5-10.7-28.2ZM212.5,54.6c0,7.1.8,12.7,2.3,16.8,1.6,4.1,4,7,7.3,8.8,3.3,1.7,7.6,2.6,13,2.6,11.3,0,19.5-5.8,24.5-17.4,4.4-10.3,6.5-21.8,6.5-34.7s-.8-12.6-2.4-16.7c-1.5-4.1-3.9-7-7.1-8.7-3.2-1.8-7.5-2.7-13-2.7-12,0-20.4,6.5-25.2,19.5-3.9,10.3-5.8,21.1-5.8,32.5ZM364.8-.2h11.1l19.7,70.8L416.3-.2h10.8l-26.8,85.3h-9.2c-6.2-20-13.1-43.6-20.8-71.1-7.6,27.3-14.5,51-20.6,71.1h-9L313.6-.2h10.8l20.9,70.8L364.8-.2ZM438-.2h50.2v8.5h-40.2v28.2h33.8v8.5h-33.8v31.7h41.9v8.5h-51.9V-.2ZM617.1,81l-.6,4.1h-36.9l.6-4.1,7.5.3c2.6,0,3.8-1.4,3.8-4.4s-.2-3.3-.6-4.6l-4.4-16.8h-31.6l-8.5,15.9c-2,3.6-3,6.2-3,7.8s.7,2.1,2,2.1l7.3-.4-.6,4.1h-24.2l.6-4.1,4.4.3c1.6,0,3.1-.9,4.6-2.7,1.5-1.8,3.3-4.6,5.3-8.3L581.7-1.2h4.1l18.7,71.9c1,3.9,2,6.6,3,8.3.9,1.6,2.3,2.4,4.1,2.4h.7l4.8-.3ZM557.2,51.6h28.3l-9.3-35.3-19.1,35.3ZM660.5.2c9,0,15.7,1.5,19.9,4.4,4.3,2.9,6.4,7.6,6.4,14s-1.9,11.6-5.7,15.8c-3.7,4.2-8.4,7-14.2,8.5,4.8.7,8.4,2.6,10.7,5.7,2.3,3.1,3.4,7.2,3.4,12.1l-.3,7.8-.3,6.8c0,2.1.3,3.7,1,4.7.7.9,1.7,1.4,3.1,1.4s2.1-.3,3-.9l1.1,2.7c-1.6.9-3.6,1.6-5.8,2.3-2.3.7-4.5,1-6.5,1s-5.1-.8-6.5-2.4c-1.3-1.7-2-4.4-2-8.1s0-2.8.1-4c0-1.2.2-2.3.3-3.1.3-2.5.4-4.7.4-6.7,0-5.9-1.7-10.3-5-13.1-3.2-2.9-7.5-4.5-12.7-4.7h-6.7l-4.7,34.9c0,1.3.7,2,2.1,2l7-.3-.6,4.1h-30.6l.6-4.1,5.6.3c1.6,0,2.6-1,2.8-3.1l9.8-70.2v-1.3c.1-.9,0-1.5-.4-1.9-.4-.5-1-.7-2-.7l-5,.3.6-4.3h31ZM651.4,4.2c-.9,0-1.5.5-1.6,1.4l-5,35h12.7c4.8,0,8.7-1.9,11.7-5.8,2.9-4,4.4-9.3,4.4-15.8s-1.1-9-3.3-11.2c-2.2-2.4-5.6-3.6-10.4-3.6h-8.5ZM764.4,22.1h-4.1c.3-1.7.4-3.2.4-4.6,0-4.7-1.4-8-4.1-10.1-2.8-2.2-7.1-3.3-13-3.3h-14.8c-.9,0-1.5.7-1.7,2l-4.6,32.7h12.8c2.9,0,5.5-1.3,7.7-3.8,2.3-2.6,3.7-6.1,4.4-10.5h4.3l-4.7,32.9h-4.3c.2-1.5.3-2.6.3-3.3,0-3.3-.8-6-2.4-8.1-1.5-2.1-3.5-3.1-5.8-3.1h-12.8l-5.1,36.4v.4c0,.9.4,1.4,1.1,1.4h19.4c6.1,0,11-1.9,14.7-5.6,3.8-3.7,6.2-9,7.1-15.9h4.1l-3.6,25.9c-2.1-.3-6.2-.4-12.2-.4h-52.5l.6-4.3,5.7.4c1.5,0,2.4-1,2.7-3.1l10-71v-.7c0-1.5-.7-2.3-2.1-2.3l-5.4.3.6-4.3h58.1c1.2,0,2.1,0,2.6-.3l-3.1,22.2Z"/>
    </g>
  </g>
</svg>